<svg width="12" height="15" viewBox="0 0 12 15" fill="none" xmlns="http://www.w3.org/2000/svg">
<path d="M8.12305 2.28003H9.37305C9.70457 2.28003 10.0225 2.41173 10.2569 2.64615C10.4914 2.88057 10.623 3.19851 10.623 3.53003V12.28C10.623 12.6115 10.4914 12.9295 10.2569 13.1639C10.0225 13.3983 9.70457 13.53 9.37305 13.53H5.93555M0.623047 8.21753V3.53003C0.623047 3.19851 0.754743 2.88057 0.989163 2.64615C1.22358 2.41173 1.54153 2.28003 1.87305 2.28003H3.12305M3.74805 1.03003H7.49805C7.84322 1.03003 8.12305 1.30985 8.12305 1.65503V2.90503C8.12305 3.25021 7.84322 3.53003 7.49805 3.53003H3.74805C3.40287 3.53003 3.12305 3.25021 3.12305 2.90503V1.65503C3.12305 1.30985 3.40287 1.03003 3.74805 1.03003ZM4.63555 7.66129C4.75743 7.5394 4.90213 7.44272 5.06137 7.37676C5.22062 7.31079 5.3913 7.27684 5.56367 7.27684C5.73604 7.27684 5.90672 7.31079 6.06597 7.37676C6.22522 7.44272 6.36991 7.5394 6.4918 7.66129C6.61368 7.78317 6.71036 7.92787 6.77633 8.08711C6.84229 8.24636 6.87624 8.41704 6.87624 8.58941C6.87624 8.76178 6.84229 8.93246 6.77633 9.09171C6.71036 9.25096 6.61368 9.39565 6.4918 9.51754L3.0918 12.905L0.623047 13.53L1.2418 11.0613L4.63555 7.66129Z" stroke="#18181B" stroke-linecap="round" stroke-linejoin="round"/>
</svg>
