<svg width="17" height="17" viewBox="0 0 17 17"  xmlns="http://www.w3.org/2000/svg">
<path d="M8.12305 0.780029C3.70605 0.780029 0.123047 4.45273 0.123047 8.98137C0.123047 12.6051 2.41505 15.6798 5.59405 16.7647C5.99405 16.8397 6.12305 16.5858 6.12305 16.3698V14.8429C3.89805 15.3389 3.43405 13.875 3.43405 13.875C3.07005 12.9271 2.54605 12.6751 2.54605 12.6751C1.82005 12.1651 2.60105 12.1771 2.60105 12.1771C3.40405 12.2341 3.82705 13.022 3.82705 13.022C4.54005 14.2759 5.69805 13.913 6.15505 13.704C6.22605 13.174 6.43405 12.8121 6.66305 12.6071C4.88605 12.3991 3.01805 11.6952 3.01805 8.55341C3.01805 7.65748 3.33105 6.92654 3.84205 6.35258C3.76005 6.1456 3.48605 5.31067 3.92005 4.18176C3.92005 4.18176 4.59205 3.96177 6.12105 5.02169C6.77291 4.84008 7.44636 4.74758 8.12305 4.74671C8.80305 4.75071 9.48805 4.8417 10.127 5.02369C11.654 3.96277 12.325 4.18276 12.325 4.18276C12.76 5.31267 12.486 6.1466 12.404 6.35258C12.917 6.92754 13.227 7.65948 13.227 8.55441C13.227 11.7042 11.356 12.3981 9.57405 12.6021C9.86105 12.8561 10.123 13.355 10.123 14.12V16.3708C10.123 16.5888 10.251 16.8457 10.657 16.7647C13.834 15.6778 16.123 12.6041 16.123 8.98137C16.123 4.45173 12.541 0.780029 8.12305 0.780029Z" fill="black"/>
</svg>
